<svg width="1200" height="760" viewBox="0 0 1200 760" fill="none" xmlns="http://www.w3.org/2000/svg">
  <rect width="1200" height="760" rx="28" fill="#F8F4E2"/>
  <rect x="40" y="58" width="240" height="644" rx="26" fill="#FFFDF6" stroke="#D9E7DB"/>
  <rect x="328" y="58" width="256" height="644" rx="26" fill="#FFFDF6" stroke="#D9E7DB"/>
  <rect x="632" y="58" width="528" height="644" rx="26" fill="#FFFDF6" stroke="#D9E7DB"/>
  <rect x="72" y="102" width="176" height="124" rx="22" fill="#F3FAF5"/>
  <rect x="72" y="246" width="176" height="124" rx="22" fill="#F3FAF5"/>
  <rect x="72" y="390" width="176" height="124" rx="22" fill="#F3FAF5"/>
  <rect x="72" y="534" width="176" height="124" rx="22" fill="#F3FAF5"/>
  <rect x="360" y="126" width="192" height="112" rx="22" fill="#F3FAF5"/>
  <rect x="360" y="264" width="192" height="112" rx="22" fill="#F3FAF5"/>
  <rect x="360" y="402" width="192" height="112" rx="22" fill="#F3FAF5"/>
  <rect x="360" y="540" width="192" height="112" rx="22" fill="#F3FAF5"/>
  <rect x="668" y="102" width="456" height="160" rx="24" fill="#F3FAF5"/>
  <rect x="668" y="294" width="212" height="160" rx="24" fill="#F3FAF5"/>
  <rect x="912" y="294" width="212" height="160" rx="24" fill="#F3FAF5"/>
  <rect x="668" y="486" width="212" height="160" rx="24" fill="#F3FAF5"/>
  <rect x="912" y="486" width="212" height="160" rx="24" fill="#F3FAF5"/>
  <path d="M248 164H328" stroke="#18A56F" stroke-width="4"/>
  <path d="M248 308H328" stroke="#18A56F" stroke-width="4"/>
  <path d="M248 452H328" stroke="#18A56F" stroke-width="4"/>
  <path d="M248 596H328" stroke="#18A56F" stroke-width="4"/>
  <path d="M552 182H632" stroke="#18A56F" stroke-width="4"/>
  <path d="M552 320H632" stroke="#18A56F" stroke-width="4"/>
  <path d="M552 458H632" stroke="#18A56F" stroke-width="4"/>
  <path d="M552 596H632" stroke="#18A56F" stroke-width="4"/>
  <rect x="92" y="124" width="88" height="12" rx="6" fill="#18A56F"/>
  <rect x="92" y="148" width="116" height="10" rx="5" fill="#8AA095"/>
  <rect x="380" y="148" width="96" height="12" rx="6" fill="#18A56F"/>
  <rect x="380" y="172" width="128" height="10" rx="5" fill="#8AA095"/>
  <rect x="696" y="130" width="184" height="12" rx="6" fill="#18A56F"/>
  <rect x="696" y="154" width="228" height="10" rx="5" fill="#8AA095"/>
  <rect x="696" y="322" width="96" height="12" rx="6" fill="#18A56F"/>
  <rect x="940" y="322" width="96" height="12" rx="6" fill="#9BDDBA"/>
  <rect x="696" y="514" width="96" height="12" rx="6" fill="#18A56F"/>
  <rect x="940" y="514" width="96" height="12" rx="6" fill="#F3C95E"/>
</svg>
