<svg width="1200" height="630" viewBox="0 0 1200 630" fill="none" xmlns="http://www.w3.org/2000/svg">
  <rect width="1200" height="630" fill="#07101C"/>
  <rect width="1200" height="630" fill="url(#bgGlow)"/>
  <rect x="36" y="36" width="1128" height="558" rx="28" fill="#0A1524" fill-opacity="0.9" stroke="#263A57"/>

  <g opacity="0.28">
    <path d="M72 94H1128" stroke="#28405D"/>
    <path d="M72 152H1128" stroke="#1E3048"/>
    <path d="M72 210H1128" stroke="#1E3048"/>
    <path d="M72 268H1128" stroke="#1E3048"/>
    <path d="M72 326H1128" stroke="#1E3048"/>
    <path d="M72 384H1128" stroke="#1E3048"/>
    <path d="M72 442H1128" stroke="#1E3048"/>
    <path d="M72 500H1128" stroke="#1E3048"/>
    <path d="M72 558H1128" stroke="#28405D"/>
    <path d="M176 72V558" stroke="#1E3048"/>
    <path d="M280 72V558" stroke="#1E3048"/>
    <path d="M384 72V558" stroke="#1E3048"/>
    <path d="M488 72V558" stroke="#1E3048"/>
    <path d="M592 72V558" stroke="#1E3048"/>
    <path d="M696 72V558" stroke="#1E3048"/>
    <path d="M800 72V558" stroke="#1E3048"/>
    <path d="M904 72V558" stroke="#1E3048"/>
    <path d="M1008 72V558" stroke="#1E3048"/>
  </g>

  <g>
    <rect x="84" y="88" width="72" height="72" rx="22" fill="#08111D"/>
    <rect x="84" y="88" width="72" height="72" rx="22" stroke="url(#brandStroke)"/>
    <rect x="105" y="112" width="10" height="22" rx="5" fill="#E9F2FF"/>
    <rect x="120" y="106" width="10" height="28" rx="5" fill="#E9F2FF"/>
    <rect x="135" y="100" width="10" height="34" rx="5" fill="#E9F2FF"/>
    <path d="M100 142H144" stroke="#7EA1CF" stroke-width="3" stroke-linecap="round" opacity="0.75"/>
    <path d="M102 134C107.5 130.3 113.2 128.8 119.2 128.8C124.2 128.8 128.9 129.9 133.4 132C136.5 133.5 139.8 134.7 143 135.2" stroke="url(#brandLine)" stroke-width="3.8" stroke-linecap="round"/>
    <circle cx="143" cy="135.2" r="4.2" fill="#F1CB63"/>
  </g>

  <text x="180" y="118" fill="#ECF4FF" font-family="Arial, sans-serif" font-size="38" font-weight="700">Rice Flow</text>
  <text x="181" y="145" fill="#8EA8C8" font-family="Arial, sans-serif" font-size="14" letter-spacing="3.6">CONNECTED RICE MILL OPERATIONS</text>

  <text x="84" y="218" fill="#9DB2CB" font-family="Arial, sans-serif" font-size="17" letter-spacing="4.4">MEASURE RIGHT. CONTROL SMART. SCALE WITH CONFIDENCE.</text>
  <text x="84" y="300" fill="#F2F7FF" font-family="Arial, sans-serif" font-size="66" font-weight="700">Secure control infrastructure</text>
  <text x="84" y="374" fill="#F2F7FF" font-family="Arial, sans-serif" font-size="66" font-weight="700">for modern rice mill operations</text>
  <text x="84" y="432" fill="#C9D6E7" font-family="Arial, sans-serif" font-size="27">IoT telemetry, alert-driven workflows, maintenance readiness, and multi-site operational visibility.</text>

  <g>
    <rect x="84" y="478" width="170" height="40" rx="20" fill="#46D6C2" fill-opacity="0.14" stroke="#46D6C2" stroke-opacity="0.38"/>
    <text x="114" y="503" fill="#7BE7D8" font-family="Arial, sans-serif" font-size="17" font-weight="600">Offline-first</text>
    <rect x="268" y="478" width="174" height="40" rx="20" fill="#46D6C2" fill-opacity="0.14" stroke="#46D6C2" stroke-opacity="0.38"/>
    <text x="298" y="503" fill="#7BE7D8" font-family="Arial, sans-serif" font-size="17" font-weight="600">Security-first</text>
    <rect x="456" y="478" width="160" height="40" rx="20" fill="#46D6C2" fill-opacity="0.14" stroke="#46D6C2" stroke-opacity="0.38"/>
    <text x="488" y="503" fill="#7BE7D8" font-family="Arial, sans-serif" font-size="17" font-weight="600">Mobile-first</text>
  </g>

  <g>
    <rect x="742" y="120" width="340" height="360" rx="28" fill="#0C1828" stroke="#243754"/>
    <rect x="772" y="154" width="126" height="108" rx="22" fill="#132236" stroke="#27405F"/>
    <rect x="772" y="280" width="126" height="92" rx="22" fill="#132236" stroke="#27405F"/>
    <rect x="772" y="390" width="126" height="60" rx="20" fill="#132236" stroke="#27405F"/>
    <rect x="916" y="154" width="136" height="68" rx="20" fill="#132236" stroke="#27405F"/>
    <rect x="916" y="238" width="136" height="120" rx="22" fill="#132236" stroke="#27405F"/>
    <rect x="916" y="376" width="136" height="74" rx="20" fill="#132236" stroke="#27405F"/>

    <text x="794" y="186" fill="#7BE7D8" font-family="Arial, sans-serif" font-size="13" letter-spacing="2.6">SITE STATUS</text>
    <text x="794" y="223" fill="#F2F7FF" font-family="Arial, sans-serif" font-size="40" font-weight="700">12.6%</text>
    <text x="794" y="246" fill="#AFC0D5" font-family="Arial, sans-serif" font-size="15">Moisture average</text>

    <text x="794" y="311" fill="#8EA8C8" font-family="Arial, sans-serif" font-size="13" letter-spacing="2.6">INCIDENTS</text>
    <text x="794" y="348" fill="#F2F7FF" font-family="Arial, sans-serif" font-size="40" font-weight="700">03</text>
    <text x="794" y="371" fill="#AFC0D5" font-family="Arial, sans-serif" font-size="15">Open alerts</text>

    <text x="794" y="422" fill="#8EA8C8" font-family="Arial, sans-serif" font-size="13" letter-spacing="2.6">AUDIT</text>
    <text x="794" y="443" fill="#F2F7FF" font-family="Arial, sans-serif" font-size="17" font-weight="600">Traceable actions</text>

    <text x="938" y="183" fill="#8EA8C8" font-family="Arial, sans-serif" font-size="13" letter-spacing="2.6">CONTROL ROOM</text>
    <text x="938" y="206" fill="#F2F7FF" font-family="Arial, sans-serif" font-size="18" font-weight="600">Live supervisory view</text>

    <path d="M940 278H1028" stroke="#46D6C2" stroke-width="4" stroke-linecap="round"/>
    <path d="M940 306H1012" stroke="#7AA7FF" stroke-width="4" stroke-linecap="round"/>
    <path d="M940 334H997" stroke="#F1CB63" stroke-width="4" stroke-linecap="round"/>
    <text x="938" y="362" fill="#AFC0D5" font-family="Arial, sans-serif" font-size="15">Threshold, escalation, and maintenance lanes</text>

    <text x="938" y="407" fill="#8EA8C8" font-family="Arial, sans-serif" font-size="13" letter-spacing="2.6">CONNECTED NODES</text>
    <text x="938" y="440" fill="#F2F7FF" font-family="Arial, sans-serif" font-size="34" font-weight="700">24</text>
  </g>

  <defs>
    <radialGradient id="bgGlow" cx="0" cy="0" r="1" gradientUnits="userSpaceOnUse" gradientTransform="translate(228 122) rotate(21.4) scale(1025 899)">
      <stop stop-color="#46D6C2" stop-opacity="0.18"/>
      <stop offset="0.48" stop-color="#07101C" stop-opacity="0"/>
      <stop offset="1" stop-color="#07101C"/>
    </radialGradient>
    <linearGradient id="brandStroke" x1="84" y1="88" x2="156" y2="160" gradientUnits="userSpaceOnUse">
      <stop stop-color="#46D6C2"/>
      <stop offset="1" stop-color="#F1CB63"/>
    </linearGradient>
    <linearGradient id="brandLine" x1="102" y1="128.8" x2="143" y2="135.2" gradientUnits="userSpaceOnUse">
      <stop stop-color="#46D6C2"/>
      <stop offset="1" stop-color="#F1CB63"/>
    </linearGradient>
  </defs>
</svg>
