<svg width="1200" height="630" viewBox="0 0 1200 630" fill="none" xmlns="http://www.w3.org/2000/svg">
  <rect width="1200" height="630" fill="#07101C"/>
  <rect width="1200" height="630" fill="url(#paint0_radial)"/>
  <rect x="40" y="40" width="1120" height="550" rx="28" fill="#0C1828" fill-opacity="0.82" stroke="rgba(255,255,255,0.1)"/>
  <g opacity="0.12">
    <path d="M40 140H1160" stroke="#8FA7C7"/>
    <path d="M40 220H1160" stroke="#8FA7C7"/>
    <path d="M40 300H1160" stroke="#8FA7C7"/>
    <path d="M40 380H1160" stroke="#8FA7C7"/>
    <path d="M40 460H1160" stroke="#8FA7C7"/>
    <path d="M160 40V590" stroke="#8FA7C7"/>
    <path d="M320 40V590" stroke="#8FA7C7"/>
    <path d="M480 40V590" stroke="#8FA7C7"/>
    <path d="M640 40V590" stroke="#8FA7C7"/>
    <path d="M800 40V590" stroke="#8FA7C7"/>
    <path d="M960 40V590" stroke="#8FA7C7"/>
  </g>
  <rect x="88" y="88" width="96" height="96" rx="28" fill="#09121F" stroke="url(#paint1_linear)"/>
  <path d="M136 107C128.6 113.8 124.8 122.4 124.8 132.6C124.8 145.8 133.6 155.6 146.2 157.2C142.4 160.3 137.6 162 132.4 162C119.9 162 109.8 151.9 109.8 139.4C109.8 124.6 120.7 112.7 136 107Z" fill="#46D6C2"/>
  <path d="M138.8 107.8C150.4 111.2 158.7 122 158.7 134.8C158.7 150.2 147.6 162 132.2 162C128.1 162 124.1 161.1 120.5 159.4C124.5 158.1 128 155.9 130.8 153C131.7 153.1 132.7 153.2 133.6 153.2C144.4 153.2 153.2 144.4 153.2 133.6C153.2 123.5 145.6 115.1 135.8 113.9C136.4 111.7 137.3 109.7 138.8 107.8Z" fill="#F3C95C"/>
  <path d="M137.6 117.3C132.9 121.7 130.6 127.2 130.6 133.9C130.6 142.5 136.4 148.9 144.9 150.1" stroke="#E8F2FF" stroke-width="4.5" stroke-linecap="round"/>
  <text x="214" y="126" fill="#F0F6FF" font-family="Arial, sans-serif" font-size="36" font-weight="700">Rice Flow</text>
  <text x="214" y="159" fill="#A7BCD4" font-family="Arial, sans-serif" font-size="18" letter-spacing="4">DIGITAL OPERATIONS PLATFORM</text>
  <text x="88" y="250" fill="#A7BCD4" font-family="Arial, sans-serif" font-size="18" letter-spacing="5">MEASURE RIGHT. CONTROL SMART. SCALE WITH CONFIDENCE.</text>
  <text x="88" y="340" fill="#F0F6FF" font-family="Arial, sans-serif" font-size="72" font-weight="700">Secure operational</text>
  <text x="88" y="420" fill="#F0F6FF" font-family="Arial, sans-serif" font-size="72" font-weight="700">infrastructure for</text>
  <text x="88" y="500" fill="#F0F6FF" font-family="Arial, sans-serif" font-size="72" font-weight="700">modern rice mills</text>
  <rect x="88" y="532" width="188" height="44" rx="22" fill="#46D6C2" fill-opacity="0.14" stroke="#46D6C2" stroke-opacity="0.32"/>
  <text x="118" y="560" fill="#7BE7D8" font-family="Arial, sans-serif" font-size="18" font-weight="600">Offline-first</text>
  <rect x="292" y="532" width="188" height="44" rx="22" fill="#46D6C2" fill-opacity="0.14" stroke="#46D6C2" stroke-opacity="0.32"/>
  <text x="323" y="560" fill="#7BE7D8" font-family="Arial, sans-serif" font-size="18" font-weight="600">Security-first</text>
  <rect x="496" y="532" width="188" height="44" rx="22" fill="#46D6C2" fill-opacity="0.14" stroke="#46D6C2" stroke-opacity="0.32"/>
  <text x="533" y="560" fill="#7BE7D8" font-family="Arial, sans-serif" font-size="18" font-weight="600">Mobile-first</text>
  <defs>
    <radialGradient id="paint0_radial" cx="0" cy="0" r="1" gradientUnits="userSpaceOnUse" gradientTransform="translate(190 120) rotate(24.8) scale(938.741 948.956)">
      <stop stop-color="#46D6C2" stop-opacity="0.14"/>
      <stop offset="0.56" stop-color="#07101C" stop-opacity="0"/>
      <stop offset="1" stop-color="#07101C"/>
    </radialGradient>
    <linearGradient id="paint1_linear" x1="88" y1="88" x2="184" y2="184" gradientUnits="userSpaceOnUse">
      <stop stop-color="#46D6C2"/>
      <stop offset="1" stop-color="#F3C95C"/>
    </linearGradient>
  </defs>
</svg>
